<?xml version="1.0" encoding="UTF-8" standalone="no"?>
<svg
   width="51.807mm"
   height="16.448mm"
   version="1.1"
   viewBox="0 0 51.807 16.448"
   id="svg16"
   sodipodi:docname="logo.svg"
   inkscape:version="1.1.2 (b8e25be833, 2022-02-05)"
   xmlns:inkscape="http://www.inkscape.org/namespaces/inkscape"
   xmlns:sodipodi="http://sodipodi.sourceforge.net/DTD/sodipodi-0.dtd"
   xmlns="http://www.w3.org/2000/svg"
   xmlns:svg="http://www.w3.org/2000/svg">
  <defs
     id="defs20" />
  <sodipodi:namedview
     id="namedview18"
     pagecolor="#505050"
     bordercolor="#eeeeee"
     borderopacity="1"
     inkscape:pageshadow="0"
     inkscape:pageopacity="0"
     inkscape:pagecheckerboard="0"
     inkscape:document-units="mm"
     showgrid="false"
     inkscape:zoom="4.7740889"
     inkscape:cx="105.67461"
     inkscape:cy="49.957176"
     inkscape:current-layer="text6" />
  <g
     transform="translate(-31.944 -25.621)"
     id="g14">
    <g
       transform="translate(0 -.37559)"
       id="g12">
      <g
         aria-label="Nectar Journal"
         transform="matrix(.2325 0 0 .2325 7.0147 4.4796)"
         id="text6"
         style="font-size:30.667px">
        <path
           d="m 135.7898,110.78684 0.0613,5.7654 h -2.57603 l -10.18144,-15.73217 h -0.15334 l -0.0307,9.26143 0.0307,6.47074 h -2.20802 l 0.092,-5.82673 -0.0613,-13.830818 h 2.54537 l 10.15077,15.732168 h 0.21467 l -0.0307,-15.6095 2.30003,-0.184002 z"
           style="font-family:'Alegreya Sans SC';fill:#ffffff"
           id="path2440" />
        <path
           d="m 150.87793,114.58955 0.184,0.184 -0.21467,1.77869 h -9.2921 l 0.092,-4.60005 -0.092,-10.67212 h 9.35343 l 0.15334,0.184 -0.184,1.77869 -3.86404,-0.12267 -3.18937,0.0307 -0.0307,4.63072 3.03603,0.0307 2.66803,-0.092 0.15334,0.21467 -0.184,1.80935 -2.82137,-0.092 -2.85203,0.0307 -0.0307,2.08536 0.0307,2.91336 3.00537,0.0307 z"
           style="font-family:'Alegreya Sans SC';fill:#ffffff"
           id="path2442" />
        <path
           d="m 160.35399,101.12674 q 2.54536,0 4.41605,1.07334 l -0.42934,2.11603 -0.276,0.092 q -0.76668,-0.64401 -1.77869,-1.01201 -1.01201,-0.36801 -2.17736,-0.36801 -2.26935,0 -3.46537,1.47202 -1.19601,1.44135 -1.19601,4.32404 0,2.91337 1.19601,4.44672 1.19602,1.53335 3.46537,1.53335 1.10402,0 2.20803,-0.368 1.13468,-0.39868 2.02402,-1.04268 l 0.276,0.092 -0.21467,2.11602 q -2.08535,1.13468 -4.38538,1.13468 -3.37337,0 -5.18272,-1.99335 -1.80935,-2.02403 -1.80935,-5.73473 0,-3.77204 1.90135,-5.82673 1.93202,-2.05469 5.42806,-2.05469 z"
           style="font-family:'Alegreya Sans SC';fill:#ffffff"
           id="path2444" />
        <path
           d="m 178.20214,101.46407 -0.15333,1.93203 -2.85204,-0.21467 h -1.53335 l -0.092,8.58676 0.092,4.78405 h -2.30002 l 0.092,-4.60005 -0.0613,-8.77076 h -1.53335 l -2.91337,0.21467 -0.184,-0.21467 0.184,-1.90136 h 11.13212 z"
           style="font-family:'Alegreya Sans SC';fill:#ffffff"
           id="path2446" />
        <path
           d="m 192.15556,116.55224 h -2.30002 l -0.368,-1.65602 -0.79735,-2.26936 -3.64937,-0.0307 -3.2507,0.0307 -0.82801,2.14669 -0.42934,1.77869 h -2.26936 l 5.88807,-15.27217 h 2.63736 z m -4.10937,-5.79606 -2.54536,-7.23742 h -0.18401 l -2.79069,7.23742 2.69869,0.0307 z"
           style="font-family:'Alegreya Sans SC';fill:#ffffff"
           id="path2448" />
        <path
           d="m 202.98099,110.38817 q 1.87069,2.85203 4.14005,5.61206 l -0.0307,0.30667 q -1.28801,0.39867 -2.11602,0.46001 l -0.39867,-0.24534 q -2.3307,-3.5267 -3.52671,-5.55073 l -2.8827,0.0307 v 0.76668 l 0.0613,4.78405 h -2.26936 l 0.092,-4.60005 -0.092,-10.67212 5.21339,-0.0307 q 2.42269,0 3.71071,1.13467 1.31868,1.13468 1.31868,3.28137 0,1.56402 -0.85868,2.7907 -0.82801,1.22668 -2.36136,1.93202 z m -4.78405,-1.28801 2.8827,0.092 q 2.72936,-0.76668 2.72936,-3.3427 0,-1.34935 -0.79734,-2.02403 -0.79734,-0.67467 -2.42269,-0.736 l -2.36136,0.0307 z"
           style="font-family:'Alegreya Sans SC';fill:#ffffff"
           id="path2450" />
        <path
           d="m 220.0011,110.05083 0.0613,2.8827 q 0,2.33069 -1.16535,3.83338 -1.16534,1.53335 -4.04804,2.91336 l -0.95068,-1.38001 v -0.30667 q 2.11603,-1.13468 3.00537,-2.23869 0.88934,-1.10402 0.88934,-2.7907 v -2.66803 l -0.12267,-11.408123 -3.77204,0.03067 -0.24533,-0.214669 0.15333,-1.809353 h 6.3174 z"
           style="font-family:'Alegreya Sans SC';fill:#ffffff"
           id="path2452" />
        <path
           d="m 231.22519,101.09607 q 3.3427,0 5.12139,1.96269 1.80935,1.96269 1.80935,5.55073 0,3.8947 -1.93202,6.04139 -1.90135,2.11603 -5.45872,2.11603 -3.31204,0 -5.12139,-1.99336 -1.80936,-2.02402 -1.80936,-5.73473 0,-3.8027 1.93203,-5.85739 1.93202,-2.08536 5.45872,-2.08536 z m -0.21467,1.93202 q -2.42269,0 -3.6187,1.38002 -1.16535,1.38001 -1.16535,4.35471 0,3.18937 1.16535,4.63072 1.16534,1.44135 3.55737,1.44135 2.45336,0 3.64937,-1.41069 1.19601,-1.41068 1.19601,-4.41604 0,-3.09737 -1.19601,-4.53872 -1.16534,-1.44135 -3.58804,-1.44135 z"
           style="font-family:'Alegreya Sans SC';fill:#ffffff"
           id="path2454" />
        <path
           d="m 254.04142,109.03882 v 2.20803 q 0.0307,2.60669 -1.59469,4.04804 -1.59468,1.44135 -4.60005,1.44135 -2.9747,0 -4.53871,-1.41068 -1.56402,-1.44135 -1.50269,-4.07871 l 0.0307,-2.33069 -0.0307,-7.63609 h 2.30003 l -0.12267,9.59877 q -0.0307,1.93202 0.95068,2.91337 1.01201,0.98134 3.00536,0.98134 1.96269,0 2.9747,-0.98134 1.01201,-0.98135 0.98135,-2.91337 l -0.092,-9.59877 h 2.33069 z"
           style="font-family:'Alegreya Sans SC';fill:#ffffff"
           id="path2456" />
        <path
           d="m 266.15487,110.38817 q 1.87069,2.85203 4.14005,5.61206 l -0.0307,0.30667 q -1.28801,0.39867 -2.11602,0.46001 l -0.39867,-0.24534 q -2.33069,-3.5267 -3.52671,-5.55073 l -2.8827,0.0307 v 0.76668 l 0.0613,4.78405 h -2.26936 l 0.092,-4.60005 -0.092,-10.67212 5.21339,-0.0307 q 2.42269,0 3.71071,1.13467 1.31868,1.13468 1.31868,3.28137 0,1.56402 -0.85868,2.7907 -0.82801,1.22668 -2.36136,1.93202 z m -4.78405,-1.28801 2.8827,0.092 q 2.72936,-0.76668 2.72936,-3.3427 0,-1.34935 -0.79734,-2.02403 -0.79734,-0.67467 -2.42269,-0.736 l -2.36136,0.0307 z"
           style="font-family:'Alegreya Sans SC';fill:#ffffff"
           id="path2458" />
        <path
           d="m 287.00839,111.98286 0.0307,4.56938 h -2.45336 l -8.03475,-11.65346 h -0.15334 l -0.0307,6.56274 0.0613,5.09072 h -2.08535 l 0.092,-4.50805 -0.0613,-10.76412 h 2.4227 l 8.03475,11.65346 h 0.21467 l -0.0613,-11.56146 2.11603,-0.15333 z"
           style="font-family:'Alegreya Sans SC';fill:#ffffff"
           id="path2460" />
        <path
           d="m 304.51921,116.55224 h -2.30003 l -0.368,-1.65602 -0.79734,-2.26936 -3.64938,-0.0307 -3.2507,0.0307 -0.82801,2.14669 -0.42933,1.77869 h -2.26936 l 5.88806,-15.27217 h 2.63736 z m -4.10938,-5.79606 -2.54536,-7.23742 h -0.184 l -2.7907,7.23742 2.6987,0.0307 z"
           style="font-family:'Alegreya Sans SC';fill:#ffffff"
           id="path2462" />
        <path
           d="m 316.54065,114.83489 -0.15334,1.71735 h -8.12675 l 0.092,-4.60005 -0.092,-10.67212 h 2.30002 l -0.092,10.48812 0.0613,2.85203 h 5.88807 z"
           style="font-family:'Alegreya Sans SC';fill:#ffffff"
           id="path2464" />
      </g>
      <g
         transform="matrix(.2325 0 0 .2325 44.565 -42.974)"
         id="g10"
         stroke="#ffffff">
        <path
           d="m46.078 332.9 32.08 22.341m-17.271-22.196 21.576 15.407m-50.679-15.551 42.042 29.385"
           id="path8"
           filter="white"
           stroke-width="2" />
        <path
           sodipodi:nodetypes="cc"
           id="path2521" />
      </g>
    </g>
  </g>
</svg>
