<svg width="552" xmlns="http://www.w3.org/2000/svg" height="417" style="-webkit-print-color-adjust:exact" fill="none"><defs><clipPath id="a" class="frame-clip"><rect rx="0" ry="0" width="552" height="417" style="fill:#fff;fill-opacity:1"/></clipPath></defs><g clip-path="url(#a)"><rect width="552" height="417" class="frame-background" style="fill:#fff;fill-opacity:1" ry="0" rx="0"/><g class="frame-children"><path d="M73 160.01V27h430v299"/><path d="M73 160.01V27h430v299" style="fill:none;stroke-width:6;stroke:#313331;stroke-opacity:1" class="stroke-shape"/><path d="M103 160.398V43h354v283"/><path d="M103 160.398V43h354v283" style="fill:none;stroke-width:6;stroke:#313331;stroke-opacity:1" class="stroke-shape"/><path d="M133 161.662V63h278v263"/><path d="M133 161.662V63h278v263" style="fill:none;stroke-width:6;stroke:#313331;stroke-opacity:1" class="stroke-shape"/><path d="M161 167.805V83h204v241"/><path d="M161 167.805V83h204v241" style="fill:none;stroke-width:6;stroke:#313331;stroke-opacity:1" class="stroke-shape"/><path d="M189 174.346V104h130v222"/><path d="M189 174.346V104h130v222" style="fill:none;stroke-width:6;stroke:#313331;stroke-opacity:1" class="stroke-shape"/><path d="M208 241h295"/><path d="M208 241h295" style="fill:none;stroke-width:6;stroke:#313331;stroke-opacity:1" class="stroke-shape"/><path d="M206 199h295"/><path d="M206 199h295" style="fill:none;stroke-width:6;stroke:#313331;stroke-opacity:1" class="stroke-shape"/><g><path d="M208 283h295"/><path d="M208 283h295" style="fill:none;stroke-width:6;stroke:#313331;stroke-opacity:1" class="stroke-shape"/></g><g><path d="M208 325h295"/><path d="M208 325h295" style="fill:none;stroke-width:6;stroke:#313331;stroke-opacity:1" class="stroke-shape"/></g><g><rect rx="12" ry="12" x="47" y="160" width="171" height="205" style="fill:#caccc9;fill-opacity:1"/><rect rx="12" ry="12" x="47" y="160" width="171" height="205" style="fill:none;stroke-width:5;stroke:#000;stroke-opacity:1" class="stroke-shape"/><g><g class="text-container"><text x="65.515" y="334" dominant-baseline="ideographic" style="text-transform:none;font-family:sourcesanspro;letter-spacing:normal;font-style:normal;font-weight:700;white-space:pre;font-size:20px;text-decoration:none solid #000;direction:ltr;fill:#000;fill-opacity:1">micro</text><text x="65.515" y="357.994" dominant-baseline="ideographic" style="text-transform:none;font-family:sourcesanspro;letter-spacing:normal;font-style:normal;font-weight:700;white-space:pre;font-size:20px;text-decoration:none solid #000;direction:ltr;fill:#000;fill-opacity:1">controller</text></g></g></g><g><circle cx="320" cy="199" style="fill:#ffbe00;fill-opacity:1" r="12"/><circle cx="320" cy="199" style="fill:none;stroke-width:2;stroke:#000;stroke-opacity:1" r="12" class="stroke-shape"/><circle cx="320" cy="199" style="fill:#313331;fill-opacity:1" r="2"/><circle cx="320" cy="241" style="fill:#ffbe00;fill-opacity:1" r="12"/><circle cx="320" cy="241" style="fill:none;stroke-width:2;stroke:#000;stroke-opacity:1" r="12" class="stroke-shape"/><circle cx="320" cy="241" style="fill:#313331;fill-opacity:1" r="2"/><circle cx="320" cy="283" style="fill:#ffbe00;fill-opacity:1" r="12"/><circle cx="320" cy="283" style="fill:none;stroke-width:2;stroke:#000;stroke-opacity:1" r="12" class="stroke-shape"/><circle cx="320" cy="283" style="fill:#313331;fill-opacity:1" r="2"/><circle cx="320" cy="325" style="fill:#ffbe00;fill-opacity:1" r="12"/><circle cx="320" cy="325" style="fill:none;stroke-width:2;stroke:#000;stroke-opacity:1" r="12" class="stroke-shape"/><circle cx="320" cy="325" style="fill:#313331;fill-opacity:1" r="2"/><circle cx="366" cy="199" style="fill:#ffbe00;fill-opacity:1" r="12"/><circle cx="366" cy="199" style="fill:none;stroke-width:2;stroke:#000;stroke-opacity:1" r="12" class="stroke-shape"/><circle cx="366" cy="199" style="fill:#313331;fill-opacity:1" r="2"/><circle cx="366" cy="241" style="fill:#ffbe00;fill-opacity:1" r="12"/><circle cx="366" cy="241" style="fill:none;stroke-width:2;stroke:#000;stroke-opacity:1" r="12" class="stroke-shape"/><circle cx="366" cy="241" style="fill:#313331;fill-opacity:1" r="2"/><circle cx="366" cy="283" style="fill:#ffbe00;fill-opacity:1" r="12"/><circle cx="366" cy="283" style="fill:none;stroke-width:2;stroke:#000;stroke-opacity:1" r="12" class="stroke-shape"/><g><circle cx="366" cy="283" style="fill:#313331;fill-opacity:1" r="2"/></g><g><circle cx="366" cy="325" style="fill:#ffbe00;fill-opacity:1" r="12"/><circle cx="366" cy="325" style="fill:none;stroke-width:2;stroke:#000;stroke-opacity:1" r="12" class="stroke-shape"/><g><circle cx="366" cy="325" style="fill:#313331;fill-opacity:1" r="2"/></g></g><g><circle cx="412" cy="199" style="fill:#ffbe00;fill-opacity:1" r="12"/><circle cx="412" cy="199" style="fill:none;stroke-width:2;stroke:#000;stroke-opacity:1" r="12" class="stroke-shape"/><g><circle cx="412" cy="199" style="fill:#313331;fill-opacity:1" r="2"/></g></g><g><circle cx="412" cy="241" style="fill:#ffbe00;fill-opacity:1" r="12"/><circle cx="412" cy="241" style="fill:none;stroke-width:2;stroke:#000;stroke-opacity:1" r="12" class="stroke-shape"/><g><circle cx="412" cy="241" style="fill:#313331;fill-opacity:1" r="2"/></g></g><g><circle cx="412" cy="283" style="fill:#ffbe00;fill-opacity:1" r="12"/><circle cx="412" cy="283" style="fill:none;stroke-width:2;stroke:#000;stroke-opacity:1" r="12" class="stroke-shape"/><g><circle cx="412" cy="283" style="fill:#313331;fill-opacity:1" r="2"/></g></g><g><circle cx="412" cy="325" style="fill:#ffbe00;fill-opacity:1" r="12"/><circle cx="412" cy="325" style="fill:none;stroke-width:2;stroke:#000;stroke-opacity:1" r="12" class="stroke-shape"/><g><circle cx="412" cy="325" style="fill:#313331;fill-opacity:1" r="2"/></g></g><g><circle cx="458" cy="199" style="fill:#ffbe00;fill-opacity:1" r="12"/><circle cx="458" cy="199" style="fill:none;stroke-width:2;stroke:#000;stroke-opacity:1" r="12" class="stroke-shape"/><g><circle cx="458" cy="199" style="fill:#313331;fill-opacity:1" r="2"/></g></g><g><circle cx="458" cy="241" style="fill:#ffbe00;fill-opacity:1" r="12"/><circle cx="458" cy="241" style="fill:none;stroke-width:2;stroke:#000;stroke-opacity:1" r="12" class="stroke-shape"/><g><circle cx="458" cy="241" style="fill:#313331;fill-opacity:1" r="2"/></g></g><g><circle cx="458" cy="283" style="fill:#ffbe00;fill-opacity:1" r="12"/><circle cx="458" cy="283" style="fill:none;stroke-width:2;stroke:#000;stroke-opacity:1" r="12" class="stroke-shape"/><g><circle cx="458" cy="283" style="fill:#313331;fill-opacity:1" r="2"/></g></g><g><circle cx="458" cy="325" style="fill:#ffbe00;fill-opacity:1" r="12"/><circle cx="458" cy="325" style="fill:none;stroke-width:2;stroke:#000;stroke-opacity:1" r="12" class="stroke-shape"/><g><circle cx="458" cy="325" style="fill:#313331;fill-opacity:1" r="2"/></g></g><g><circle cx="504" cy="199" style="fill:#ffbe00;fill-opacity:1" r="12"/><circle cx="504" cy="199" style="fill:none;stroke-width:2;stroke:#000;stroke-opacity:1" r="12" class="stroke-shape"/><g><circle cx="504" cy="199" style="fill:#313331;fill-opacity:1" r="2"/></g></g><g><circle cx="504" cy="241" style="fill:#ffbe00;fill-opacity:1" r="12"/><circle cx="504" cy="241" style="fill:none;stroke-width:2;stroke:#000;stroke-opacity:1" r="12" class="stroke-shape"/><g><circle cx="504" cy="241" style="fill:#313331;fill-opacity:1" r="2"/></g></g><g><circle cx="504" cy="283" style="fill:#ffbe00;fill-opacity:1" r="12"/><circle cx="504" cy="283" style="fill:none;stroke-width:2;stroke:#000;stroke-opacity:1" r="12" class="stroke-shape"/><g><circle cx="504" cy="283" style="fill:#313331;fill-opacity:1" r="2"/></g></g><g><circle cx="504" cy="325" style="fill:#ffbe00;fill-opacity:1" r="12"/><circle cx="504" cy="325" style="fill:none;stroke-width:2;stroke:#000;stroke-opacity:1" r="12" class="stroke-shape"/><g><circle cx="504" cy="325" style="fill:#313331;fill-opacity:1" r="2"/></g></g></g><g><text x="96.563" y="198.945" dominant-baseline="ideographic" style="text-transform:none;font-family:sourcesanspro;letter-spacing:normal;font-style:normal;font-weight:700;white-space:pre;font-size:20px;text-decoration:none solid #000;direction:ltr;fill:#000;fill-opacity:1" class="text-container">Columns</text></g><g><text x="169.048" y="275.318" dominant-baseline="ideographic" style="text-transform:none;font-family:&quot;Source Sans Pro&quot;;letter-spacing:normal;font-style:normal;font-weight:600;white-space:pre;font-size:20px;text-decoration:none solid #000;direction:ltr;fill:#000;fill-opacity:1" transform="matrix(0 -1 1 0 -67.5 457.5)" class="text-container">Rows</text></g><g><text x="336.034" y="394.203" dominant-baseline="ideographic" style="text-transform:none;font-family:sourcesanspro;letter-spacing:normal;font-style:normal;font-weight:400;white-space:pre;font-size:20px;text-decoration:none solid #000;direction:ltr;fill:#000;fill-opacity:1" class="text-container">The keyboard keys</text></g></g></g></svg>